<?xml version="1.0" standalone="no"?>
<!DOCTYPE svg PUBLIC "-//W3C//DTD SVG 20010904//EN"
 "http://www.w3.org/TR/2001/REC-SVG-20010904/DTD/svg10.dtd">
<svg version="1.0" xmlns="http://www.w3.org/2000/svg"
 width="639.000000pt" height="639.000000pt" viewBox="0 0 639.000000 639.000000"
 preserveAspectRatio="xMidYMid meet">
<metadata>
Created by potrace 1.14, written by Peter Selinger 2001-2017
</metadata>
<g transform="translate(0.000000,639.000000) scale(0.100000,-0.100000)"
fill="#000000" stroke="none">
<path d="M2816 5209 c1 -481 4 -583 15 -593 8 -7 266 -182 574 -388 308 -206
706 -473 885 -593 179 -120 530 -356 780 -523 250 -168 531 -357 623 -419 93
-62 172 -113 176 -113 5 0 8 262 8 583 l0 582 -271 182 c-576 386 -1300 871
-1726 1158 -245 164 -581 390 -748 502 -166 112 -306 203 -310 203 -4 0 -6
-261 -6 -581z"/>
<path d="M2335 4858 c-55 -46 -123 -105 -229 -199 -23 -20 -144 -125 -271
-235 -126 -109 -297 -257 -380 -329 -82 -72 -181 -157 -220 -190 -38 -33 -85
-74 -105 -92 -48 -43 -78 -69 -129 -111 -24 -21 -51 -44 -60 -52 -16 -16 -134
-118 -185 -161 -16 -13 -34 -29 -40 -34 -6 -6 -49 -44 -96 -85 l-85 -74 0
-579 c0 -318 2 -580 5 -582 4 -2 28 16 56 39 27 24 141 123 254 221 113 98
219 189 235 204 17 14 80 69 140 121 61 52 112 97 115 100 3 3 39 34 80 70 41
36 80 69 86 75 7 5 36 31 65 56 83 70 456 394 524 454 33 29 98 85 145 125 47
40 103 89 124 108 l39 35 1 574 c1 316 -1 579 -4 583 -3 5 -32 -14 -65 -42z"/>
<path d="M4986 1892 l2 -679 -1799 0 -1799 0 -2 555 -3 556 -95 -83 c-52 -46
-111 -98 -131 -115 -19 -17 -74 -65 -122 -106 l-87 -75 0 -582 0 -583 33 -1
c17 0 1024 0 2237 0 l2205 -1 2 752 1 751 -210 140 c-115 77 -215 142 -221
145 -9 3 -12 -157 -11 -674z"/>
</g>
</svg>
